<svg xmlns="http://www.w3.org/2000/svg" width="48" height="48" viewBox="0 0 48 48">
    <g fill="none" fill-rule="evenodd">
        <circle cx="24" cy="24" r="24" fill="#237AF6"/>
        <path d="M12 12h24v24H12z"/>
        <path fill="#FFF" d="M31 18h-2c0-2.76-2.24-5-5-5s-5 2.24-5 5h-2c-1.1 0-2 .9-2 2v12c0 1.1.9 2 2 2h14c1.1 0 2-.9 2-2V20c0-1.1-.9-2-2-2zm-7-3c1.66 0 3 1.34 3 3h-6c0-1.66 1.34-3 3-3zm7 17H17V20h14v12zm-7-8c-1.66 0-3-1.34-3-3h-2c0 2.76 2.24 5 5 5s5-2.24 5-5h-2c0 1.66-1.34 3-3 3z"/>
    </g>
</svg>
